<svg xmlns="http://www.w3.org/2000/svg" xmlns:xlink="http://www.w3.org/1999/xlink" width="139" height="55" viewBox="0 0 139 55">
    <defs>
        <path id="a" d="M.296.311h69.457V26H.296z"/>
        <path id="c" d="M0 .359h25.656v17.534H0z"/>
        <path id="e" d="M0 55h139V0H0z"/>
    </defs>
    <g fill="none" fill-rule="evenodd">
        <g transform="translate(69 29)">
            <mask id="b" fill="#fff">
                <use xlink:href="#a"/>
            </mask>
            <path fill="#FFF" d="M69.338.413a.626.626 0 0 0-.806.386c-5.083 14.307-18.544 23.92-33.496 23.92-14.981 0-28.452-9.639-33.518-23.983A.627.627 0 0 0 .713.349a.644.644 0 0 0-.38.82C5.58 16.022 19.526 26 35.037 26c15.48 0 29.417-9.952 34.68-24.766a.645.645 0 0 0-.378-.82" mask="url(#b)"/>
        </g>
        <g transform="translate(0 6)">
            <mask id="d" fill="#fff">
                <use xlink:href="#c"/>
            </mask>
            <path fill="#FFF" d="M18.116 13.45h-.068L14.875.36h-3.924L7.641 13.45h-.067L4.128.36H0l5.459 17.534h4.094L12.794 4.87h.068l3.275 13.023h3.992L25.656.359h-3.957z" mask="url(#d)"/>
        </g>
        <path fill="#FFF" d="M30.905 13.914a5.356 5.356 0 0 1 .394-1.883c.24-.58.56-1.086.959-1.516.4-.43.88-.767 1.439-1.011a4.624 4.624 0 0 1 1.867-.366c.662 0 1.261.134 1.798.4.537.268.993.617 1.37 1.046.377.43.674.936.89 1.517.218.581.349 1.186.395 1.813h-9.112zm11.167-4.672a8.275 8.275 0 0 0-2.757-2.353C38.207 6.297 36.956 6 35.564 6c-1.325 0-2.513.256-3.562.767a8.202 8.202 0 0 0-2.69 2.074 9.363 9.363 0 0 0-1.713 3.033A11.03 11.03 0 0 0 27 15.518c0 1.394.188 2.672.565 3.834.377 1.163.937 2.162 1.679 2.999a7.645 7.645 0 0 0 2.723 1.952c1.073.465 2.307.697 3.7.697.958 0 1.878-.134 2.757-.4a7.766 7.766 0 0 0 2.38-1.186 7.474 7.474 0 0 0 1.816-1.935 7.578 7.578 0 0 0 1.062-2.614h-3.7c-.342 1-.862 1.748-1.558 2.248-.697.5-1.616.75-2.757.75-.823 0-1.53-.145-2.124-.436a4.218 4.218 0 0 1-1.473-1.168 5.001 5.001 0 0 1-.874-1.708 7.024 7.024 0 0 1-.29-2.022h13.016a10.49 10.49 0 0 0-.257-3.922c-.331-1.267-.862-2.388-1.593-3.365zM50.905 13.914a5.367 5.367 0 0 1 .394-1.883c.24-.58.56-1.086.96-1.516.399-.43.878-.767 1.438-1.011a4.624 4.624 0 0 1 1.867-.366c.662 0 1.261.134 1.798.4.536.268.994.617 1.37 1.046.378.43.674.936.891 1.517.217.581.348 1.186.394 1.813h-9.112zm11.167-4.672a8.272 8.272 0 0 0-2.757-2.353C58.207 6.297 56.956 6 55.564 6c-1.325 0-2.513.256-3.563.767a8.207 8.207 0 0 0-2.689 2.074 9.37 9.37 0 0 0-1.713 3.033C47.2 13.024 47 14.24 47 15.518c0 1.394.188 2.672.565 3.834.378 1.163.937 2.162 1.68 2.999a7.64 7.64 0 0 0 2.722 1.952c1.073.465 2.307.697 3.7.697.959 0 1.878-.134 2.757-.4a7.77 7.77 0 0 0 2.381-1.186 7.474 7.474 0 0 0 1.816-1.935 7.568 7.568 0 0 0 1.061-2.614h-3.699c-.343 1-.862 1.748-1.559 2.248-.697.5-1.616.75-2.757.75-.822 0-1.53-.145-2.124-.436a4.212 4.212 0 0 1-1.473-1.168 5.001 5.001 0 0 1-.874-1.708 7.024 7.024 0 0 1-.29-2.022h13.016a10.51 10.51 0 0 0-.257-3.922c-.331-1.267-.862-2.388-1.593-3.365zM74.12 26c.775 0 1.568-.077 2.378-.23a6.846 6.846 0 0 0 2.209-.812 5.08 5.08 0 0 0 1.642-1.536c.434-.636.651-1.448.651-2.437 0-.941-.16-1.718-.48-2.331a4.136 4.136 0 0 0-1.317-1.5c-.56-.39-1.221-.695-1.986-.919a26.232 26.232 0 0 0-2.447-.583c-.707-.164-1.41-.329-2.105-.494a9.093 9.093 0 0 1-1.883-.653c-.559-.27-1.01-.63-1.351-1.077-.343-.447-.514-1.036-.514-1.766 0-.636.154-1.177.462-1.625a3.685 3.685 0 0 1 1.18-1.094 5.087 5.087 0 0 1 1.627-.6 9.377 9.377 0 0 1 1.797-.178c.73 0 1.414.089 2.053.265a4.724 4.724 0 0 1 1.66.812c.468.366.833.843 1.096 1.43.262.59.394 1.296.394 2.12h1.3c0-1.036-.165-1.919-.496-2.649a4.848 4.848 0 0 0-1.37-1.8c-.581-.472-1.272-.813-2.07-1.025-.8-.212-1.655-.318-2.567-.318-.753 0-1.506.077-2.26.23a6.64 6.64 0 0 0-2.036.76 4.381 4.381 0 0 0-1.489 1.43c-.388.6-.582 1.347-.582 2.242 0 1.248.297 2.195.89 2.843.593.647 1.34 1.147 2.242 1.5.901.354 1.87.619 2.91.795 1.038.177 2.007.406 2.91.69.9.281 1.647.682 2.24 1.2.594.518.891 1.283.891 2.295 0 .777-.183 1.419-.547 1.925-.366.506-.828.9-1.387 1.183a6.214 6.214 0 0 1-1.814.583 11.5 11.5 0 0 1-1.832.159c-.798 0-1.54-.118-2.224-.354a5.195 5.195 0 0 1-1.797-1.041 5.421 5.421 0 0 1-1.25-1.66c-.32-.648-.502-1.395-.547-2.243H67c.023 1.06.217 1.99.582 2.79s.867 1.478 1.506 2.03a6.268 6.268 0 0 0 2.242 1.237c.856.27 1.785.406 2.79.406M86.337 14.597c0-1.118.176-2.087.528-2.909.352-.821.81-1.494 1.373-2.02a5.526 5.526 0 0 1 1.865-1.162 5.68 5.68 0 0 1 1.97-.377c.281 0 .663.046 1.144.137.48.091.95.297 1.408.616.457.32.856.804 1.196 1.455.34.65.51 1.522.51 2.617V25h1.338V14.597c0-1.05.14-1.98.422-2.79.282-.809.674-1.488 1.18-2.035a4.813 4.813 0 0 1 1.794-1.232 6.103 6.103 0 0 1 2.27-.41c.257 0 .627.04 1.108.119.48.08.961.285 1.443.616.48.33.897.816 1.25 1.454.35.64.527 1.518.527 2.635V25H109V12.988c0-1.026-.14-1.916-.422-2.669-.282-.753-.675-1.374-1.18-1.865a4.785 4.785 0 0 0-1.794-1.095 6.902 6.902 0 0 0-2.27-.359c-1.478 0-2.669.314-3.571.941-.904.628-1.625 1.557-2.165 2.789h-.07A4.506 4.506 0 0 0 97 9.378a4.28 4.28 0 0 0-1.055-1.197c-.447-.354-.986-.639-1.62-.856C93.693 7.11 92.942 7 92.075 7c-.681 0-1.332.102-1.954.308a6.174 6.174 0 0 0-1.69.855 5.636 5.636 0 0 0-1.284 1.284 4.64 4.64 0 0 0-.739 1.557h-.07V7.41H85V25h1.337V14.597z"/>
        <mask id="f" fill="#fff">
            <use xlink:href="#e"/>
        </mask>
        <path fill="#FFF" d="M113 25h1V7h-1zM113 4h1V0h-1zM118 25h1V0h-1zM124.696 12.425c.3-.824.763-1.57 1.391-2.24.628-.67 1.446-1.19 2.455-1.562.942-.347 1.848-.467 2.718-.363.87.107 1.676.38 2.418.82a6.895 6.895 0 0 1 1.955 1.76 10.88 10.88 0 0 1 1.41 2.469l-12.365 4.553a11.135 11.135 0 0 1-.405-2.782 7.316 7.316 0 0 1 .423-2.655m-.915 6.97c.446 1.238 1.014 2.338 1.707 3.298.692.96 1.49 1.718 2.396 2.274.906.556 1.905.89 2.997 1 1.092.112 2.262-.062 3.508-.521 2.033-.749 3.477-1.881 4.33-3.398.102-.182.196-.37.281-.562l-1.33-.238c-.043.092-.082.186-.13.276-.664 1.259-1.84 2.2-3.529 2.821-1.03.38-2.006.514-2.927.402a5.848 5.848 0 0 1-2.525-.912c-.762-.495-1.438-1.149-2.027-1.959a10.775 10.775 0 0 1-1.421-2.708l-.064-.179-.007-.02 13.642-5.024a5.27 5.27 0 0 1-.108-.355 5.394 5.394 0 0 0-.122-.387c-.413-1.15-.96-2.17-1.639-3.06A8.51 8.51 0 0 0 134.464 8a6.936 6.936 0 0 0-2.93-.969c-1.066-.108-2.19.055-3.37.49-1.29.475-2.321 1.137-3.093 1.984a7.62 7.62 0 0 0-1.661 2.867c-.336 1.063-.465 2.2-.388 3.412.076 1.212.33 2.415.759 3.61" mask="url(#f)"/>
    </g>
</svg>
