<svg xmlns="http://www.w3.org/2000/svg" xmlns:xlink="http://www.w3.org/1999/xlink" width="24" height="24" viewBox="0 0 24 24">
    <defs>
        <rect id="a" width="24" height="24" rx="12"/>
        <rect id="b" width="21.6" height="21.6" x="1.2" y="1.2" rx="10.8"/>
        <filter id="c" width="113.9%" height="113.9%" x="-6.9%" y="-6.9%" filterUnits="objectBoundingBox">
            <feGaussianBlur in="SourceAlpha" result="shadowBlurInner1" stdDeviation="1.5"/>
            <feOffset in="shadowBlurInner1" result="shadowOffsetInner1"/>
            <feComposite in="shadowOffsetInner1" in2="SourceAlpha" k2="-1" k3="1" operator="arithmetic" result="shadowInnerInner1"/>
            <feColorMatrix in="shadowInnerInner1" values="0 0 0 0 0 0 0 0 0 0 0 0 0 0 0 0 0 0 0.05 0"/>
        </filter>
        <path id="f" d="M9.799 16.94c-.192.229-.452.343-.781.343h-.821v-.989H8v-.554h.197v-.93h.732c.106 0 .2.006.28.02a.98.98 0 0 1 .25.066c.164.07.304.196.42.375.133.21.2.466.2.769 0 .376-.093.676-.28.9zm-.402-1.38a.46.46 0 0 0-.404-.196h-.24v.376h.317v.554h-.318v.434h.239c.181 0 .318-.063.409-.19.082-.114.123-.278.123-.489 0-.207-.042-.37-.126-.489zm2.847 1.403a1.062 1.062 0 0 1-.816.367c-.312 0-.58-.12-.802-.36a1.258 1.258 0 0 1-.342-.893c0-.187.028-.363.085-.528.03-.088.077-.18.142-.278.226-.338.533-.507.92-.507.32 0 .59.123.813.369.224.247.336.551.336.913 0 .363-.112.67-.336.917zm-.38-1.422a.521.521 0 0 0-.43-.222.525.525 0 0 0-.43.215.79.79 0 0 0-.164.506.81.81 0 0 0 .165.515.528.528 0 0 0 .858-.001.806.806 0 0 0 .161-.505.814.814 0 0 0-.16-.508zm.073-1.456l-.727-.36.15-.392.712.428-.135.324zm-.368.508l-.135-.193-.135.193h-.476l.458-.555h.317l.442.555h-.47zm2.663 2.69l-.828-1.504-.007.003.016 1.5h-.533V14.81h.48l.84 1.554.006-.006-.024-1.548h.533v2.473h-.483zm3.101-1.276c0 .38-.11.696-.33.948a1.06 1.06 0 0 1-.831.378 1.06 1.06 0 0 1-.818-.373 1.334 1.334 0 0 1-.338-.924c0-.365.115-.67.343-.915.224-.238.498-.357.821-.357.242 0 .465.08.67.24.214.165.354.377.419.634h-.623c-.106-.213-.265-.32-.48-.32a.528.528 0 0 0-.43.213.786.786 0 0 0-.164.505c0 .21.053.383.16.522.111.147.257.22.437.22a.548.548 0 0 0 .324-.096.504.504 0 0 0 .196-.301h-.65v-.504h1.291l.003.065v.065z"/>
        <filter id="e" width="121.4%" height="150%" x="-10.7%" y="-12.5%" filterUnits="objectBoundingBox">
            <feOffset dy=".5" in="SourceAlpha" result="shadowOffsetOuter1"/>
            <feGaussianBlur in="shadowOffsetOuter1" result="shadowBlurOuter1" stdDeviation=".25"/>
            <feColorMatrix in="shadowBlurOuter1" values="0 0 0 0 0 0 0 0 0 0 0 0 0 0 0 0 0 0 0.2 0"/>
        </filter>
        <path id="h" d="M4.403 12.474h.94V9.84c0-.129.003-.264.01-.405l-.554.491a.35.35 0 0 1-.108.066.301.301 0 0 1-.26-.021.337.337 0 0 1-.102-.088L4 9.418l1.523-1.364h.86v4.42h.805v.802H4.403v-.802zm7.14-1.81c0 .457-.045.852-.137 1.186a2.503 2.503 0 0 1-.38.831 1.557 1.557 0 0 1-1.301.652c-.26 0-.5-.053-.72-.16a1.552 1.552 0 0 1-.572-.492 2.5 2.5 0 0 1-.378-.83 4.567 4.567 0 0 1-.136-1.186c0-.456.046-.851.136-1.186a2.5 2.5 0 0 1 .378-.83c.161-.22.352-.383.572-.49.22-.106.46-.159.72-.159.26 0 .5.053.723.16.223.106.415.269.577.488.162.22.29.497.381.831.092.335.138.73.138 1.186zm-1.073 0c0-.36-.021-.655-.064-.886a1.902 1.902 0 0 0-.17-.542.639.639 0 0 0-.24-.27.56.56 0 0 0-.271-.074.552.552 0 0 0-.27.073.625.625 0 0 0-.235.27 1.953 1.953 0 0 0-.165.543c-.041.23-.062.526-.062.887 0 .363.021.659.062.888.042.23.097.41.165.543a.624.624 0 0 0 .235.272.552.552 0 0 0 .27.073.56.56 0 0 0 .272-.073c.09-.049.17-.14.24-.272.07-.133.127-.314.169-.543.043-.23.064-.525.064-.888zm5.302 0c0 .457-.046.852-.138 1.186a2.503 2.503 0 0 1-.38.831 1.557 1.557 0 0 1-1.301.652c-.26 0-.5-.053-.72-.16a1.552 1.552 0 0 1-.572-.492 2.5 2.5 0 0 1-.377-.83 4.567 4.567 0 0 1-.136-1.186c0-.456.045-.851.136-1.186a2.5 2.5 0 0 1 .377-.83c.161-.22.352-.383.572-.49.22-.106.46-.159.72-.159.26 0 .5.053.723.16.223.106.415.269.577.488.163.22.29.497.381.831.092.335.138.73.138 1.186zm-1.074 0c0-.36-.021-.655-.064-.886a1.902 1.902 0 0 0-.17-.542.639.639 0 0 0-.24-.27.56.56 0 0 0-.271-.074.552.552 0 0 0-.27.073.625.625 0 0 0-.235.27 1.953 1.953 0 0 0-.164.543c-.042.23-.063.526-.063.887 0 .363.021.659.063.888.04.23.096.41.164.543a.624.624 0 0 0 .235.272.552.552 0 0 0 .27.073.56.56 0 0 0 .272-.073c.09-.049.17-.14.24-.272.07-.133.127-.314.17-.543.042-.23.063-.525.063-.888zm5.302 0c0 .457-.046.852-.138 1.186a2.503 2.503 0 0 1-.38.831 1.557 1.557 0 0 1-1.3.652c-.26 0-.5-.053-.72-.16a1.552 1.552 0 0 1-.573-.492 2.5 2.5 0 0 1-.377-.83 4.567 4.567 0 0 1-.136-1.186c0-.456.045-.851.136-1.186a2.5 2.5 0 0 1 .377-.83c.161-.22.352-.383.572-.49.22-.106.46-.159.72-.159.26 0 .5.053.723.16.223.106.415.269.578.488.162.22.289.497.38.831.092.335.138.73.138 1.186zm-1.074 0c0-.36-.021-.655-.064-.886a1.902 1.902 0 0 0-.169-.542.639.639 0 0 0-.24-.27.56.56 0 0 0-.272-.074.552.552 0 0 0-.27.073.625.625 0 0 0-.235.27 1.953 1.953 0 0 0-.164.543c-.042.23-.062.526-.062.887 0 .363.02.659.062.888.041.23.096.41.164.543a.624.624 0 0 0 .235.272.552.552 0 0 0 .27.073.56.56 0 0 0 .272-.073c.09-.049.17-.14.24-.272.07-.133.127-.314.17-.543.042-.23.063-.525.063-.888z"/>
        <filter id="g" width="112.5%" height="137.5%" x="-6.2%" y="-9.4%" filterUnits="objectBoundingBox">
            <feOffset dy=".5" in="SourceAlpha" result="shadowOffsetOuter1"/>
            <feGaussianBlur in="shadowOffsetOuter1" result="shadowBlurOuter1" stdDeviation=".25"/>
            <feColorMatrix in="shadowBlurOuter1" values="0 0 0 0 0 0 0 0 0 0 0 0 0 0 0 0 0 0 0.2 0"/>
        </filter>
    </defs>
    <g fill="none" fill-rule="evenodd">
        <use fill="#FFD000" fill-rule="nonzero" xlink:href="#a"/>
        <mask id="d" fill="#fff">
            <use xlink:href="#b"/>
        </mask>
        <g fill-rule="nonzero">
            <use fill="#E3AE00" xlink:href="#b"/>
            <use fill="#000" filter="url(#c)" xlink:href="#b"/>
        </g>
        <g mask="url(#d)">
            <use fill="#000" filter="url(#e)" xlink:href="#f"/>
            <use fill="#FFD000" xlink:href="#f"/>
        </g>
        <g mask="url(#d)">
            <use fill="#000" filter="url(#g)" xlink:href="#h"/>
            <use fill="#FFD000" xlink:href="#h"/>
        </g>
    </g>
</svg>
